Plot:
Zooey and Alec Morrison are a married couple who are struggling to bridge the painful gap that is developing between them. Unable to conceive, the Morrisons await confirmation of a child to foster. One day, a seven years old boy who calls himself Eli appears on their doorstep quite mysteriously, explaining the foster agency has sent him. The boy is old beyond his years and it becomes apparent that he is the listening ear amongst the coupleâ™s marriage breakdown. Eli offers moral support and idealistic suggestions to his foster parents on how to repair and re-kindle their love for each other. Adored by his foster mother and admired by his foster father, the couple begin to rebuild their foundations at home, at work and emotionally until they find the love they once had for each other. And miraculously, Zooey discovers she has conceived. A baby is on the way.

General
Complete name : Foster.2011.DVDRip.XviD-OCW.avi
Format : AVI
Format/Info : Audio Video Interleave
File size : 700 MiB
Duration : 1h 30mn
Overall bit rate : 1 085 Kbps
Writing application : VirtualDubMod 1.5.4.1 (build 2178/release)
Writing library : VirtualDubMod build 2178/release

Video
ID : 0
Format : MPEG-4 Visual
Format profile : Advanced Simple@L5
Format settings, BVOP : 1
Format settings, QPel : No
Format settings, GMC : No warppoints
Format settings, Matrix : Custom
Codec ID : XVID
Codec ID/Hint : XviD
Duration : 1h 30mn
Bit rate : 957 Kbps
Width : 720 pixels
Height : 416 pixels
Display aspect ratio : 16:9
Frame rate : 23.976 fps
Color space : YUV
Chroma subsampling : 4:2:0
Bit depth : 8 bits
Scan type : Progressive
Compression mode : Lossy
Bits/(Pixel*Frame) : 0.133
Stream size : 618 MiB (88%)
Writing library : XviD 62

Audio
ID : 1
Format : MPEG Audio
Format version : Version 1
Format profile : Layer 3
Mode : Joint stereo
Mode extension : MS Stereo
Codec ID : 55
Codec ID/Hint : MP3
Duration : 1h 30mn
Bit rate mode : Variable
Bit rate : 115 Kbps
Nominal bit rate : 128 Kbps
Channel(s) : 2 channels
Sampling rate : 48.0 KHz
Compression mode : Lossy
Stream size : 74.2 MiB (11%)
Alignment : Aligned on interleaves
Interleave, duration : 24 ms (0.58 video frame)
Interleave, preload duration : 544 ms
Writing library : LAME3.98r
Encoding settings : -m j -V 4 -q 2 -lowpass 17 --abr 128
Language : English
 
http://img254.imageshack.us/img254/8940/vlcsnap2011121818h03m16.png 
http://img857.imageshack.us/img857/2162/vlcsnap2011121818h03m55.png 
http://img215.imageshack.us/img215/3554/vlcsnap2011121818h04m32.png 
http://img829.imageshack.us/img829/7261/vlcsnap2011121818h02m45.png